<?xml version="1.0" encoding="UTF-8"?>
<svg version="1.1" xmlns="http://www.w3.org/2000/svg" width="304" height="124">
<path d="M0 0 C0.7613324 -0.0049649 1.52266479 -0.00992981 2.30706787 -0.01504517 C4.82671004 -0.02965436 7.34628923 -0.03646698 9.8659668 -0.04199219 C11.61850486 -0.047745 13.3710429 -0.05350272 15.12358093 -0.05926514 C18.79967543 -0.06977182 22.47574807 -0.07561655 26.15185547 -0.07910156 C30.85615419 -0.08458325 35.56016304 -0.10860564 40.26437092 -0.13707352 C43.88554215 -0.15572286 47.50664392 -0.16090674 51.12785912 -0.16243744 C52.86176321 -0.1654597 54.59566621 -0.17347384 56.32952309 -0.18662262 C58.75896701 -0.2037301 61.18770732 -0.20179154 63.6171875 -0.1953125 C64.68582283 -0.20913467 64.68582283 -0.20913467 65.77604675 -0.22323608 C71.39485399 -0.17643596 75.50073622 1.15918349 79.50268555 5.16113281 C80.09602322 8.27615559 79.96763459 10.3305121 78.4050293 13.12207031 C75.08996904 17.73663419 71.22202065 21.95003883 66.50268555 25.16113281 C65.84268555 25.16113281 65.18268555 25.16113281 64.50268555 25.16113281 C64.50268555 25.82113281 64.50268555 26.48113281 64.50268555 27.16113281 C62.60424805 28.88769531 62.60424805 28.88769531 60.12768555 30.78613281 C59.31557617 31.41777344 58.5034668 32.04941406 57.66674805 32.70019531 C55.50268555 34.16113281 55.50268555 34.16113281 53.50268555 34.16113281 C53.50268555 34.82113281 53.50268555 35.48113281 53.50268555 36.16113281 C51.80737305 37.68457031 51.80737305 37.68457031 49.37768555 39.53613281 C38.9525658 47.68213611 29.10044263 56.44269797 19.42456055 65.45800781 C16.36463201 68.28885079 13.25186347 71.04448014 10.08862305 73.75878906 C8.4558338 75.15965644 8.4558338 75.15965644 6.91674805 76.84472656 C5.50268555 78.16113281 5.50268555 78.16113281 3.50268555 78.16113281 C3.50268555 78.82113281 3.50268555 79.48113281 3.50268555 80.16113281 C1.90934315 81.59663007 0.25017473 82.95940608 -1.43481445 84.28613281 C-6.60864609 88.42117701 -11.59027195 92.71450418 -16.49731445 97.16113281 C-15.21083008 97.33386719 -13.9243457 97.50660156 -12.59887695 97.68457031 C-1.57637997 99.34032352 8.30959159 101.97716664 18.62768555 106.22363281 C29.57669815 110.69408295 39.73641725 113.21820033 51.50268555 114.16113281 C52.64374756 114.2582959 52.64374756 114.2582959 53.80786133 114.35742188 C58.03681622 114.70625815 62.26296343 114.97484199 66.50268555 115.16113281 C66.00768555 114.31550781 65.51268555 113.46988281 65.00268555 112.59863281 C61.68015287 104.76127105 62.52454955 94.98111272 65.25268555 87.09863281 C68.71251745 78.99376707 73.20018747 74.04291329 80.50268555 69.16113281 C86.51461105 67.15715764 93.3685799 67.90927452 99.50268555 69.16113281 C102.81164859 72.47009585 103.31021559 77.18831572 103.75268555 81.72363281 C103.50268555 84.16113281 103.50268555 84.16113281 102.50268555 87.41113281 C100.46119784 95.06671171 101.70430927 101.58460224 103.50268555 109.16113281 C103.5524947 104.75034055 103.58859688 100.3397017 103.61254883 95.92871094 C103.62254456 94.43128605 103.63614568 92.93388037 103.65356445 91.43652344 C103.67809842 89.27176138 103.68923298 87.10725958 103.69799805 84.94238281 C103.7137085 82.99428711 103.7137085 82.99428711 103.72973633 81.00683594 C103.47982436 76.77391832 102.61453995 73.2437232 101.50268555 69.16113281 C101.29276119 66.44051313 101.40496973 63.89717581 101.50268555 61.16113281 C104.47268555 60.66613281 104.47268555 60.66613281 107.50268555 60.16113281 C110.33120369 64.21070523 111.07540699 67.53099862 111.62768555 72.41113281 C111.7055127 73.06992432 111.78333984 73.72871582 111.86352539 74.4074707 C112.08762916 76.32409826 112.29549235 78.24260351 112.50268555 80.16113281 C112.61612305 81.1446875 112.72956055 82.12824219 112.84643555 83.14160156 C113.07597755 85.14690605 113.29138985 87.15382373 113.50268555 89.16113281 C114.0337793 88.14792969 114.56487305 87.13472656 115.11206055 86.09082031 C115.82543248 84.73916822 116.53898372 83.38761074 117.25268555 82.03613281 C117.77475586 81.03839844 117.77475586 81.03839844 118.30737305 80.02050781 C120.49088852 75.89608969 122.71991928 71.91435959 125.50268555 68.16113281 C126.16268555 68.16113281 126.82268555 68.16113281 127.50268555 68.16113281 C127.90487305 67.26394531 127.90487305 67.26394531 128.31518555 66.34863281 C129.54379808 64.0853992 130.39299901 62.64572704 132.50268555 61.16113281 C135.00268555 61.22363281 135.00268555 61.22363281 137.50268555 62.16113281 C139.31518555 64.22363281 139.31518555 64.22363281 140.50268555 66.16113281 C141.36893555 65.64550781 142.23518555 65.12988281 143.12768555 64.59863281 C146.95348326 62.96912638 148.57775408 62.94004302 152.50268555 64.16113281 C154.31518555 65.22363281 154.31518555 65.22363281 155.50268555 67.16113281 C157.48300118 76.14871913 155.28394005 82.51112561 150.50268555 90.16113281 C149.84268555 90.16113281 149.18268555 90.16113281 148.50268555 90.16113281 C148.31706055 90.71800781 148.13143555 91.27488281 147.94018555 91.84863281 C145.83907841 95.22867473 142.79602561 97.01253662 139.50268555 99.16113281 C139.83268555 100.15113281 140.16268555 101.14113281 140.50268555 102.16113281 C143.3958125 103.60769629 145.26834621 103.46060868 148.50268555 103.16113281 C154.44855479 101.05053014 161.59818567 96.97013257 164.50268555 91.16113281 C165.16268555 91.16113281 165.82268555 91.16113281 166.50268555 91.16113281 C166.50268555 90.50113281 166.50268555 89.84113281 166.50268555 89.16113281 C167.16268555 89.16113281 167.82268555 89.16113281 168.50268555 89.16113281 C168.19588867 88.17113281 167.8890918 87.18113281 167.57299805 86.16113281 C166.44609638 82.21002081 165.85387313 78.23604952 165.37768555 74.16113281 C165.29131836 73.48824219 165.20495117 72.81535156 165.1159668 72.12207031 C164.58797615 67.78081387 164.33541411 63.53249315 164.50268555 59.16113281 C165.50268555 58.16113281 165.50268555 58.16113281 169.00268555 58.03613281 C172.50268555 58.16113281 172.50268555 58.16113281 173.50268555 59.16113281 C173.95728413 61.81576402 174.20511792 64.48302419 174.50268555 67.16113281 C175.43081055 65.70707031 175.43081055 65.70707031 176.37768555 64.22363281 C178.50268555 61.16113281 178.50268555 61.16113281 180.50268555 60.16113281 C183.31518555 59.78613281 183.31518555 59.78613281 186.50268555 60.16113281 C189.60835822 62.57665601 191.21669845 64.17117748 192.31518555 67.97363281 C192.37706055 68.69550781 192.43893555 69.41738281 192.50268555 70.16113281 C194.48268555 69.17113281 196.46268555 68.18113281 198.50268555 67.16113281 C198.63084724 61.00326867 198.25971442 55.28298331 197.19018555 49.22363281 C197.05700928 48.43947998 196.92383301 47.65532715 196.78662109 46.84741211 C195.8997177 41.82890016 194.6690668 37.05762949 193.0690918 32.21582031 C192.20487575 29.08080211 192.22770633 26.39213865 192.50268555 23.16113281 C193.50268555 22.16113281 193.50268555 22.16113281 196.44018555 21.97363281 C199.50268555 22.16113281 199.50268555 22.16113281 201.50268555 24.16113281 C202.15698242 26.16967773 202.15698242 26.16967773 202.72143555 28.64160156 C202.93058594 29.55192139 203.13973633 30.46224121 203.35522461 31.40014648 C203.56888672 32.37314697 203.78254883 33.34614746 204.00268555 34.34863281 C204.22408203 35.33645752 204.44547852 36.32428223 204.67358398 37.34204102 C206.19953909 44.32277544 207.3536646 51.26143454 208.14331055 58.36035156 C208.42093787 61.23742026 208.42093787 61.23742026 209.50268555 64.16113281 C210.61643555 63.63519531 210.61643555 63.63519531 211.75268555 63.09863281 C214.64576703 62.11235503 215.71739226 62.06691045 218.50268555 63.16113281 C219.50268555 64.16113281 219.50268555 64.16113281 219.69018555 67.09863281 C219.50268555 70.16113281 219.50268555 70.16113281 217.50268555 72.16113281 C214.84731182 72.72633284 212.21123842 72.89901479 209.50268555 73.16113281 C209.78644747 76.18289539 210.07943546 79.2032942 210.37768555 82.22363281 C210.45631836 83.07119141 210.53495117 83.91875 210.6159668 84.79199219 C211.11773542 89.79037962 211.74621519 94.43831565 213.50268555 99.16113281 C214.49268555 99.82113281 215.48268555 100.48113281 216.50268555 101.16113281 C216.44081055 99.98550781 216.44081055 99.98550781 216.37768555 98.78613281 C216.50268555 96.16113281 216.50268555 96.16113281 218.50268555 94.16113281 C221.37768555 94.16113281 221.37768555 94.16113281 224.50268555 95.16113281 C226.62768555 98.09863281 226.62768555 98.09863281 228.50268555 101.16113281 C231.18073139 103.21430129 232.27508103 103.17898415 235.69018555 102.91113281 C236.61831055 102.66363281 237.54643555 102.41613281 238.50268555 102.16113281 C238.83268555 101.50113281 239.16268555 100.84113281 239.50268555 100.16113281 C237.08194547 93.06029525 232.3994931 86.95426863 227.98193359 80.984375 C223.21889929 74.538603 221.40478775 70.23852378 222.50268555 62.16113281 C224.29915409 59.22690086 225.44679265 57.68907926 228.50268555 56.16113281 C234.07058067 55.4929854 237.38856176 56.64249554 241.8894043 59.72753906 C243.50268555 61.16113281 243.50268555 61.16113281 244.69018555 63.78613281 C244.50268555 66.16113281 244.50268555 66.16113281 243.44018555 68.03613281 C240.59546704 69.68790485 238.60075968 68.91843982 235.50268555 68.16113281 C235.50268555 67.50113281 235.50268555 66.84113281 235.50268555 66.16113281 C234.18268555 66.16113281 232.86268555 66.16113281 231.50268555 66.16113281 C232.90322959 71.33055663 235.20787698 74.89840543 238.37768555 79.09863281 C244.34976988 87.09980811 249.23243692 93.76217575 248.50268555 104.16113281 C247.09807857 107.03419253 245.75757556 108.9062428 243.50268555 111.16113281 C240.51979911 112.16825791 237.69969809 112.32448403 234.56518555 112.34863281 C233.73116211 112.3628125 232.89713867 112.37699219 232.0378418 112.39160156 C229.50268555 112.16113281 229.50268555 112.16113281 227.1315918 111.18066406 C222.7900049 109.49692828 218.29496098 109.69991824 213.68237305 109.50488281 C210.50268555 109.16113281 210.50268555 109.16113281 207.50268555 107.16113281 C207.35831055 107.96550781 207.21393555 108.76988281 207.06518555 109.59863281 C206.50268555 112.16113281 206.50268555 112.16113281 205.50268555 113.16113281 C200.74573948 113.69849153 196.76073076 113.84257397 192.50268555 111.53613281 C187.04440796 105.05442818 187.49662832 95.35630311 186.6472168 87.28222656 C185.7948602 79.56370039 185.7948602 79.56370039 183.50268555 72.16113281 C179.00212436 81.76233001 180.4778196 93.03265504 180.7175293 103.33496094 C180.73170898 104.55248047 180.74588867 105.77 180.76049805 107.02441406 C180.78257324 108.13083252 180.80464844 109.23725098 180.82739258 110.37719727 C180.50268555 113.16113281 180.50268555 113.16113281 179.15454102 115.06420898 C177.50268555 116.16113281 177.50268555 116.16113281 174.81518555 115.84863281 C174.05206055 115.62175781 173.28893555 115.39488281 172.50268555 115.16113281 C172.16448389 113.57883221 171.83232615 111.99523907 171.50268555 110.41113281 C171.31706055 109.52941406 171.13143555 108.64769531 170.94018555 107.73925781 C170.50268555 105.16113281 170.50268555 105.16113281 170.50268555 101.16113281 C167.05034469 103.16987919 163.83740149 105.34967358 160.62768555 107.72363281 C154.05457893 112.30929569 148.79789259 113.73425828 140.86206055 112.70019531 C137.41001944 111.91148393 135.20118491 110.42034158 132.50268555 108.16113281 C131.62225586 107.43667969 130.74182617 106.71222656 129.8347168 105.96582031 C127.50268555 103.16113281 127.50268555 103.16113281 127.12768555 99.77832031 C127.31331055 97.9259375 127.31331055 97.9259375 127.50268555 96.03613281 C127.5953772 95.05567993 127.5953772 95.05567993 127.68994141 94.05541992 C128.31545594 88.23976775 129.67049316 82.70380286 131.50268555 77.16113281 C128.14772446 80.98593527 126.02443984 84.94737213 124.06518555 89.59863281 C123.76515625 90.29657959 123.46512695 90.99452637 123.15600586 91.71362305 C119.9844058 99.1949774 117.2750853 106.84393356 114.70581055 114.55175781 C114.00268555 116.47363281 114.00268555 116.47363281 112.50268555 119.16113281 C109.87768555 119.97363281 109.87768555 119.97363281 107.50268555 120.16113281 C107.17268555 120.82113281 106.84268555 121.48113281 106.50268555 122.16113281 C104.37768555 122.59863281 104.37768555 122.59863281 101.50268555 122.16113281 C98.18023615 119.3473838 95.87281272 116.40370262 94.62768555 112.22363281 C94.58643555 111.54300781 94.54518555 110.86238281 94.50268555 110.16113281 C94.00639648 110.57105469 93.51010742 110.98097656 92.9987793 111.40332031 C86.76910374 116.3445051 86.76910374 116.3445051 82.62768555 117.28613281 C79.39315163 117.8004452 79.39315163 117.8004452 78.30737305 120.21582031 C78.04182617 120.85777344 77.7762793 121.49972656 77.50268555 122.16113281 C72.16824308 122.23605476 66.83411609 122.29009452 61.49926758 122.32592773 C59.68964289 122.3408873 57.88005365 122.36126238 56.07055664 122.38745117 C41.14637542 122.5978252 29.3742576 120.39365465 15.43896484 114.98364258 C0.63585341 109.26814033 -14.19412706 104.23934049 -29.93481445 109.66113281 C-35.05060471 112.16441096 -39.80850995 115.4550864 -44.5168457 118.64941406 C-47.49731445 120.16113281 -47.49731445 120.16113281 -50.3215332 119.95410156 C-52.49731445 119.16113281 -52.49731445 119.16113281 -53.49731445 118.16113281 C-54.05981445 115.47363281 -54.05981445 115.47363281 -53.49731445 112.16113281 C-49.82253882 108.16815035 -44.88259168 105.80664225 -40.12231445 103.34863281 C-35.05092796 100.66624657 -31.16082646 97.42088632 -27.00512695 93.49316406 C-24.54576843 91.20619048 -22.00358042 89.12150927 -19.37231445 87.03613281 C-13.55096834 82.35065911 -8.17352776 77.23050197 -2.8034668 72.03759766 C-2.14427246 71.4067627 -1.48507813 70.77592773 -0.8059082 70.12597656 C-0.21608154 69.55484131 0.37374512 68.98370605 0.98144531 68.39526367 C2.50268555 67.16113281 2.50268555 67.16113281 4.50268555 67.16113281 C4.50268555 66.50113281 4.50268555 65.84113281 4.50268555 65.16113281 C5.8659668 63.78613281 5.8659668 63.78613281 7.81518555 62.16113281 C11.21916002 59.27254884 14.53350953 56.31319604 17.81518555 53.28613281 C22.250342 49.24034537 26.81226583 45.41429336 31.4831543 41.64550781 C35.06924238 38.69498773 38.56732852 35.65269922 42.06518555 32.59863281 C58.11169717 18.6247956 58.11169717 18.6247956 62.50268555 17.16113281 C62.50268555 16.50113281 62.50268555 15.84113281 62.50268555 15.16113281 C64.46195618 13.44677101 66.46148766 11.77708114 68.50268555 10.16113281 C65.19214403 9.05761897 62.72097742 9.02751498 59.23388672 9.01586914 C57.93791061 9.00948929 56.64193451 9.00310944 55.3066864 8.99653625 C53.88634275 8.995006 52.46599859 8.99389288 51.0456543 8.99316406 C49.58132393 8.98994758 48.11699389 8.98658321 46.65266418 8.983078 C43.57507587 8.97708406 40.49751562 8.97523799 37.41992188 8.97583008 C33.51461629 8.97593083 29.60949611 8.96237105 25.70423412 8.94505787 C22.67293 8.9338155 19.64166865 8.9319147 16.61034584 8.9324398 C15.17333662 8.93127445 13.73632575 8.92693594 12.29933739 8.91910744 C3.93165748 8.87784864 -4.14063707 9.33454925 -12.40849304 10.73173523 C-15.51249138 11.16324266 -18.3695618 11.37521424 -21.49731445 11.16113281 C-22.15731445 10.50113281 -22.81731445 9.84113281 -23.49731445 9.16113281 C-22.92913263 3.59295099 -22.92913263 3.59295099 -21.49731445 2.16113281 C-19.71015802 1.95156398 -17.91687676 1.79301666 -16.12231445 1.66113281 C-10.60335959 1.2534 -5.5753083 0.00867424 0 0 Z M146.50268555 72.16113281 C142.63632484 76.23098618 139.27299367 80.76973988 137.50268555 86.16113281 C137.83268555 87.15113281 138.16268555 88.14113281 138.50268555 89.16113281 C145.79344317 81.76369133 145.79344317 81.76369133 148.50268555 72.16113281 C147.84268555 72.16113281 147.18268555 72.16113281 146.50268555 72.16113281 Z M87.50268555 76.16113281 C85.01633311 77.33494194 85.01633311 77.33494194 82.50268555 79.16113281 C81.67768555 79.67675781 80.85268555 80.19238281 80.00268555 80.72363281 C74.61978105 85.97196469 71.45686319 93.76625607 70.50268555 101.16113281 C71.01043049 104.16049213 71.81938113 106.61733323 73.50268555 109.16113281 C75.77468572 110.66562449 75.77468572 110.66562449 78.50268555 110.16113281 C84.69125693 106.93791855 88.85482034 102.46061115 91.25268555 95.97363281 C92.74963176 90.90638385 93.90190474 85.45512641 93.50268555 80.16113281 C91.63546755 77.64541995 90.54141303 77.17404197 87.50268555 76.16113281 Z M194.50268555 78.16113281 C194.72223388 82.10095434 194.98350828 86.03691531 195.25268555 89.97363281 C195.31456055 91.09318359 195.37643555 92.21273437 195.44018555 93.36621094 C195.5175293 94.43935547 195.59487305 95.5125 195.67456055 96.61816406 C195.73740234 97.60792236 195.80024414 98.59768066 195.86499023 99.61743164 C196.29983386 102.28143298 196.29983386 102.28143298 198.38256836 104.02709961 C200.51127309 105.42394642 200.51127309 105.42394642 203.25268555 104.84863281 C203.99518555 104.62175781 204.73768555 104.39488281 205.50268555 104.16113281 C205.29772461 103.31292969 205.09276367 102.46472656 204.8815918 101.59082031 C202.91643031 93.03437556 201.8896028 84.94015181 201.50268555 76.16113281 C199.1498094 76.16113281 196.70895331 77.41006294 194.50268555 78.16113281 Z " fill="#3A3A3A" transform="translate(55.497314453125,0.8388671875)"/>
<path d="M0 0 C1.32 0 2.64 0 4 0 C4.03738281 0.85980469 4.07476562 1.71960938 4.11328125 2.60546875 C4.6784828 12.76801434 5.28205744 23.29531091 11 32 C10.34 32 9.68 32 9 32 C8.855625 32.804375 8.71125 33.60875 8.5625 34.4375 C8 37 8 37 7 38 C2.24305393 38.53735872 -1.74195479 38.68144116 -6 36.375 C-12.8998947 28.18137504 -12.4336098 13.23800913 -12 3 C-11.67 3 -11.34 3 -11 3 C-10.92483154 3.69037354 -10.84966309 4.38074707 -10.7722168 5.09204102 C-10.42189589 8.25022507 -10.05484551 11.40625274 -9.6875 14.5625 C-9.56955078 15.64853516 -9.45160156 16.73457031 -9.33007812 17.85351562 C-8.45939158 27.59508858 -8.45939158 27.59508858 -3.25 35.4375 C-0.13376181 36.21655955 2.80444672 36.1229059 6 36 C6.33 34.68 6.66 33.36 7 32 C5.906875 31.896875 4.81375 31.79375 3.6875 31.6875 C-0.04063635 30.99242373 -0.80788729 30.84452721 -3 28 C-4.21807836 21.02373304 -4.10759311 14.06528102 -4 7 C-3.67 7 -3.34 7 -3 7 C-2.95512451 7.59538574 -2.91024902 8.19077148 -2.86401367 8.80419922 C-2.65298265 11.49583026 -2.42051926 14.18518718 -2.1875 16.875 C-2.11724609 17.81214844 -2.04699219 18.74929687 -1.97460938 19.71484375 C-1.89404297 20.61074219 -1.81347656 21.50664063 -1.73046875 22.4296875 C-1.62835083 23.67081299 -1.62835083 23.67081299 -1.52416992 24.93701172 C-1.14719239 27.38563586 -1.14719239 27.38563586 2 29 C4.15274948 28.69159401 4.15274948 28.69159401 6 28 C5.79503906 27.21238281 5.59007812 26.42476562 5.37890625 25.61328125 C3.42816597 17.72631697 2.38500022 10.11155627 2 2 C1.01 1.67 0.02 1.34 -1 1 C-0.67 0.67 -0.34 0.34 0 0 Z " fill="#CBCBCB" transform="translate(254,76)"/>
<path d="M0 0 C3.5 0.125 3.5 0.125 4.5 1.125 C4.95459858 3.77963121 5.20243238 6.44689138 5.5 9.125 C6.11875 8.155625 6.7375 7.18625 7.375 6.1875 C9.5 3.125 9.5 3.125 11.5 2.125 C15.55142119 1.86639865 17.04337669 1.82058446 20.5 4.125 C20.5 4.785 20.5 5.445 20.5 6.125 C19.51 6.125 18.52 6.125 17.5 6.125 C17.5 5.465 17.5 4.805 17.5 4.125 C12.49399049 5.37650238 10.41814122 6.89872651 7.5 11.125 C6.51 12.445 5.52 13.765 4.5 15.125 C3.84 10.835 3.18 6.545 2.5 2.125 C0.85 2.125 -0.8 2.125 -2.5 2.125 C-2.18872014 5.43761581 -1.87574793 8.75006976 -1.5625 12.0625 C-1.47548828 12.98869141 -1.38847656 13.91488281 -1.29882812 14.86914062 C-0.75324813 20.6280406 -0.1543395 26.3774233 0.5 32.125 C-0.985 32.62 -0.985 32.62 -2.5 33.125 C-2.5 32.465 -2.5 31.805 -2.5 31.125 C-1.84 31.125 -1.18 31.125 -0.5 31.125 C-0.80679688 30.135 -1.11359375 29.145 -1.4296875 28.125 C-2.55658916 24.173888 -3.14881242 20.19991671 -3.625 16.125 C-3.75455078 15.11566406 -3.75455078 15.11566406 -3.88671875 14.0859375 C-4.4147094 9.74468106 -4.66727144 5.49636034 -4.5 1.125 C-3.5 0.125 -3.5 0.125 0 0 Z " fill="#C5C5C5" transform="translate(224.5,58.875)"/>
<path d="M0 0 C2.94702738 1.10513527 3.87883653 2.29244382 5.5 4.9375 C6.799375 4.1640625 6.799375 4.1640625 8.125 3.375 C11.90603042 1.76456112 13.61455391 1.76283025 17.5 2.9375 C17.83 3.5975 18.16 4.2575 18.5 4.9375 C17.30375 4.875625 16.1075 4.81375 14.875 4.75 C10.63164795 4.79482414 8.03184233 5.40378702 4.5 7.9375 C2.8216016 10.25196625 1.32690883 12.60011202 -0.10546875 15.07421875 C-0.56566406 15.68910156 -1.02585938 16.30398437 -1.5 16.9375 C-2.49 16.9375 -3.48 16.9375 -4.5 16.9375 C-6.18798827 18.37500191 -6.18798827 18.37500191 -7.5 19.9375 C-6.1645994 15.18940899 -3.3111174 12.35508018 0.0390625 8.90234375 C1.89778428 6.81058848 1.89778428 6.81058848 1.5 2.9375 C-2.32097239 3.46819061 -4.56171403 4.43451566 -7.5 6.9375 C-4.34143223 -0.10853581 -4.34143223 -0.10853581 0 0 Z " fill="#C9C9C9" transform="translate(190.5,62.0625)"/>
<path d="M0 0 C0.66 0.33 1.32 0.66 2 1 C-0.97 3.64 -3.94 6.28 -7 9 C1.91 10.485 1.91 10.485 11 12 C11 12.33 11 12.66 11 13 C4.59641256 13.12556054 4.59641256 13.12556054 1.625 12.5 C-1.24868287 11.95263183 -3.8900399 11.90228964 -6.8125 11.9375 C-7.78832031 11.94652344 -8.76414063 11.95554687 -9.76953125 11.96484375 C-10.50558594 11.97644531 -11.24164063 11.98804687 -12 12 C-8.32167983 7.47384007 -4.58913637 3.60575001 0 0 Z " fill="#D1D1D1" transform="translate(46,89)"/>
<path d="M0 0 C0.99 0.66 1.98 1.32 3 2 C3 2.66 3 3.32 3 4 C2.01 4 1.02 4 0 4 C0 3.34 0 2.68 0 2 C-3.91211733 3.15585285 -6.8745041 4.35534962 -10 7 C-9.6875 4.625 -9.6875 4.625 -9 2 C-5.53001271 -0.31332486 -4.07490752 -0.33957563 0 0 Z " fill="#909090" transform="translate(242,61)"/>
<path d="M0 0 C0.99 0 1.98 0 3 0 C1.82744291 3.33727786 0.81131596 5.77437487 -2 8 C-2.66 8 -3.32 8 -4 8 C-5.62514468 9.45833358 -5.62514468 9.45833358 -7 11 C-5.50897439 6.39137539 -3.30545582 3.46669756 0 0 Z " fill="#D8D8D8" transform="translate(190,71)"/>
<path d="M0 0 C7.28571377 0.89212822 13.51385435 2.51962916 20 6 C16.67118282 7.10960573 16.12635748 6.9412896 12.98828125 5.78515625 C12.23095703 5.51123047 11.47363281 5.23730469 10.69335938 4.95507812 C9.90767578 4.66052734 9.12199219 4.36597656 8.3125 4.0625 C7.51521484 3.77181641 6.71792969 3.48113281 5.89648438 3.18164062 C3.92798243 2.46260698 1.96358188 1.73236297 0 1 C0 0.67 0 0.34 0 0 Z " fill="#BFBFBF" transform="translate(51,108)"/>
<path d="M0 0 C6.15234375 0.5859375 6.15234375 0.5859375 8 1 C8.33 1.66 8.66 2.32 9 3 C8.34 3 7.68 3 7 3 C6.855625 3.804375 6.71125 4.60875 6.5625 5.4375 C6 8 6 8 5 9 C3.31391034 9.07205511 1.62499341 9.08386068 -0.0625 9.0625 C-0.98160156 9.05347656 -1.90070313 9.04445313 -2.84765625 9.03515625 C-3.55792969 9.02355469 -4.26820313 9.01195313 -5 9 C-5 8.67 -5 8.34 -5 8 C-0.545 7.505 -0.545 7.505 4 7 C4.33 5.68 4.66 4.36 5 3 C2.525 2.01 2.525 2.01 0 1 C0 0.67 0 0.34 0 0 Z " fill="#EAEAEA" transform="translate(256,105)"/>
<path d="M0 0 C1.65 0 3.3 0 5 0 C5 0.99 5 1.98 5 3 C3.68 3 2.36 3 1 3 C1.66 5.64 2.32 8.28 3 11 C0.55178556 9.08400609 0.00675177 8.02756971 -0.75 4.9375 C-1 2 -1 2 0 0 Z " fill="#B6B6B6" transform="translate(286,64)"/>
<path d="M0 0 C0.99 0.33 1.98 0.66 3 1 C3.73046875 2.84765625 3.73046875 2.84765625 4.1875 5.0625 C4.34605469 5.79597656 4.50460938 6.52945313 4.66796875 7.28515625 C4.77753906 7.85105469 4.88710937 8.41695312 5 9 C4.34 8.67 3.68 8.34 3 8 C2.375 5.4375 2.375 5.4375 2 3 C0.68 3.99 -0.64 4.98 -2 6 C-2.66 5.67 -3.32 5.34 -4 5 C-2.68 3.35 -1.36 1.7 0 0 Z " fill="#D3D3D3" transform="translate(148,108)"/>
<path d="M0 0 C0.33 0 0.66 0 1 0 C1.33 2.97 1.66 5.94 2 9 C2.66 8.67 3.32 8.34 4 8 C3.625 10.4375 3.625 10.4375 3 13 C2.01 13.495 2.01 13.495 1 14 C0.06380187 10.84493858 -0.1057123 8.03413498 -0.0625 4.75 C-0.05347656 3.85796875 -0.04445312 2.9659375 -0.03515625 2.046875 C-0.02355469 1.37140625 -0.01195312 0.6959375 0 0 Z " fill="#C8C8C8" transform="translate(167,81)"/>
<path d="" fill="#FFFFFF" transform="translate(0,0)"/>
<path d="" fill="#FFFFFF" transform="translate(0,0)"/>
<path d="" fill="#FFFFFF" transform="translate(0,0)"/>
<path d="" fill="#FFFFFF" transform="translate(0,0)"/>
<path d="" fill="#FFFFFF" transform="translate(0,0)"/>
<path d="" fill="#FFFFFF" transform="translate(0,0)"/>
<path d="" fill="#FFFFFF" transform="translate(0,0)"/>
<path d="" fill="#FFFFFF" transform="translate(0,0)"/>
<path d="" fill="#FFFFFF" transform="translate(0,0)"/>
<path d="" fill="#FFFFFF" transform="translate(0,0)"/>
</svg>
