<?xml version="1.0" encoding="UTF-8"?>
<svg version="1.1" xmlns="http://www.w3.org/2000/svg" width="375" height="160">
<path d="M0 0 C1.2905127 0.03915527 2.58102539 0.07831055 3.91064453 0.11865234 C24.12796621 0.81524917 24.12796621 0.81524917 29.25 5.5625 C31.17686386 9.64745139 31.48379007 11.68968374 30.3125 16.0625 C28.20271041 20.25356851 24.90782697 23.66268055 21.25 26.5625 C20.59 26.5625 19.93 26.5625 19.25 26.5625 C19.25 27.2225 19.25 27.8825 19.25 28.5625 C17.74212839 29.93741299 16.16460239 31.23614462 14.5625 32.5 C13.55832031 33.30308594 12.55414063 34.10617188 11.51953125 34.93359375 C10.98408691 35.36140137 10.44864258 35.78920898 9.89697266 36.22998047 C7.1409042 38.45983841 4.44798818 40.76301867 1.75 43.0625 C-2.44506121 46.62014687 -6.64481664 50.1716484 -10.875 53.6875 C-11.74382812 54.41195312 -12.61265625 55.13640625 -13.5078125 55.8828125 C-15.75 57.5625 -15.75 57.5625 -18.75 58.5625 C-18.75 59.2225 -18.75 59.8825 -18.75 60.5625 C-20.26151546 61.91347374 -21.83813313 63.19177345 -23.4375 64.4375 C-27.88906061 67.99645977 -32.14535828 71.6752686 -36.3125 75.5625 C-37.13524414 76.32953247 -37.13524414 76.32953247 -37.97460938 77.11206055 C-39.05723177 78.1221112 -40.13959479 79.13243995 -41.22167969 80.14306641 C-45.01710332 83.66808127 -48.89088122 87.1076097 -52.75 90.5625 C-57.58422591 94.89690287 -62.4061356 99.24047665 -67.16723633 103.65527344 C-72.51591429 108.60625782 -77.98553983 113.31410713 -83.66796875 117.8828125 C-85.61818205 119.39523177 -85.61818205 119.39523177 -86.75 120.5625 C-84.95369141 120.69205078 -84.95369141 120.69205078 -83.12109375 120.82421875 C-67.43980466 122.11060614 -54.44712367 126.84395948 -39.96801758 132.74487305 C-26.38728038 138.21049972 -13.79115924 139.72886542 0.75 139.625 C1.95398438 139.62048828 3.15796875 139.61597656 4.3984375 139.61132812 C7.34901073 139.5996195 10.29947859 139.58321995 13.25 139.5625 C12.92765381 139.00111328 12.60530762 138.43972656 12.27319336 137.86132812 C8.85807067 130.18850654 10.28595849 117.7500553 12.125 109.76171875 C13.28533397 106.81889805 14.5789562 104.24552452 16.25 101.5625 C16.74628906 100.75941406 17.24257812 99.95632812 17.75390625 99.12890625 C22.02699159 93.02302768 27.50587845 87.80519783 34.25 84.5625 C39.76846966 83.72300126 44.93767832 83.79172611 50.25 85.5625 C51.5184375 85.5315625 51.5184375 85.5315625 52.8125 85.5 C55.25 85.5625 55.25 85.5625 57.25 87.5625 C57.08951172 86.65757813 57.08951172 86.65757813 56.92578125 85.734375 C55.9562635 79.27092333 55.9562635 79.27092333 57.3125 76 C60.0892366 73.93984059 61.87831109 74.07079537 65.25 74.5625 C67.99722067 76.3759363 68.30770542 77.78025166 69.1640625 81.01171875 C69.41592298 82.42190222 69.65202149 83.8349623 69.875 85.25 C69.99979736 85.9937085 70.12459473 86.73741699 70.25317383 87.50366211 C71.46862871 95.15691454 71.94805326 102.8264162 72.25 110.5625 C72.78367188 109.48613281 73.31734375 108.40976563 73.8671875 107.30078125 C79.790764 95.59889307 86.35932326 84.42222672 96.25 75.5625 C99.375 75.4375 99.375 75.4375 102.25 76.5625 C104.125 79.125 104.125 79.125 105.25 81.5625 C106.075 81.0675 106.9 80.5725 107.75 80.0625 C112.19848369 78.15600699 114.44256152 77.95203162 119.25 78.5625 C122.57236752 81.24866948 125.02761551 83.46260712 125.48828125 87.8125 C125.79517361 99.18366954 121.87969102 107.24788891 114.25 115.5625 C112.49407718 117.21386068 110.71076209 118.7690873 108.828125 120.2734375 C107.19083263 121.61082978 105.72166478 123.04650797 104.25 124.5625 C106.31973091 126.36349592 107.69274443 127.48104731 110.44140625 127.8828125 C120.33239001 127.06806919 127.3955353 121.97027786 133.8125 114.625 C134.43253906 113.85285156 135.05257813 113.08070312 135.69140625 112.28515625 C136.46291016 111.43244141 136.46291016 111.43244141 137.25 110.5625 C137.91 110.5625 138.57 110.5625 139.25 110.5625 C139.04503906 109.48613281 138.84007812 108.40976563 138.62890625 107.30078125 C137.13450906 99.26447102 135.90075757 91.37777766 135.4609375 83.19921875 C135.33535707 80.61139132 135.33535707 80.61139132 134.65625 78.375 C134.25 76.5625 134.25 76.5625 135.375 73.875 C137.25 71.5625 137.25 71.5625 139.6875 70.5625 C142.96105387 70.5625 143.9185637 71.30829555 146.25 73.5625 C146.859375 76.04296875 146.859375 76.04296875 147 78.75 C147.05671875 79.65105469 147.1134375 80.55210938 147.171875 81.48046875 C147.19765625 82.16753906 147.2234375 82.85460937 147.25 83.5625 C147.848125 82.44875 148.44625 81.335 149.0625 80.1875 C150.62695617 77.27437472 151.34907498 76.49645001 154.25 74.5625 C159.27386523 73.82127398 159.27386523 73.82127398 162.25 74.5625 C165.77100191 77.25236412 167.865252 80.27084601 169.125 84.5 C169.16625 85.180625 169.2075 85.86125 169.25 86.5625 C173.21 85.0775 173.21 85.0775 177.25 83.5625 C176.47784963 70.00922905 174.69661724 57.3103553 170.92675781 44.27270508 C169.61340729 39.59401655 168.81918778 35.47375928 169.25 30.5625 C169.91 29.5725 170.57 28.5825 171.25 27.5625 C174.6875 27.125 174.6875 27.125 178.25 27.5625 C180.78511604 30.22884558 181.67557632 32.47235197 182.25 36.0625 C182.88169984 39.79348831 183.71500527 43.3964227 184.70703125 47.046875 C186.40502495 53.75214374 187.22635854 60.44201853 187.9375 67.3125 C188.06705078 68.4984375 188.19660156 69.684375 188.33007812 70.90625 C188.64413865 73.79095412 188.9506578 76.67623804 189.25 79.5625 C189.86488281 79.33506104 190.47976563 79.10762207 191.11328125 78.87329102 C192.32564453 78.44294556 192.32564453 78.44294556 193.5625 78.00390625 C194.36300781 77.71459229 195.16351563 77.42527832 195.98828125 77.12719727 C198.25 76.5625 198.25 76.5625 201.25 77.5 C203.86811188 80.19992787 204.25 81.82266017 204.25 85.5625 C202.66768676 88.48410908 201.76164284 89.40552709 198.55078125 90.390625 C197.07158203 90.59945312 197.07158203 90.59945312 195.5625 90.8125 C194.56863281 90.96203125 193.57476562 91.1115625 192.55078125 91.265625 C191.79152344 91.36359375 191.03226562 91.4615625 190.25 91.5625 C191.45961212 107.31570387 191.45961212 107.31570387 195.25 122.5625 C196.24 123.2225 197.23 123.8825 198.25 124.5625 C198.1571875 123.4178125 198.1571875 123.4178125 198.0625 122.25 C198.25 119.5625 198.25 119.5625 199.375 117.75 C202.33307705 115.8765512 203.8144506 115.82149915 207.25 116.5625 C209.03352432 118.46234112 210.43527515 120.43407998 211.85546875 122.6171875 C213.26819302 124.82961447 213.26819302 124.82961447 216.25 126.5625 C218.76584891 126.80400773 218.76584891 126.80400773 221.4375 126.6875 C222.33855469 126.66945313 223.23960937 126.65140625 224.16796875 126.6328125 C224.85503906 126.60960938 225.54210937 126.58640625 226.25 126.5625 C227.49560254 124.63857397 227.49560254 124.63857397 226.71875 122.75 C223.43696258 115.33951229 218.91113065 109.13794316 214.08984375 102.66015625 C213.37957031 101.69980469 212.66929687 100.73945312 211.9375 99.75 C211.28136719 98.87730469 210.62523437 98.00460938 209.94921875 97.10546875 C205.77688871 90.86136103 205.43371181 84.91904842 206.25 77.5625 C207.45214433 74.32166761 209.2703453 72.33222869 212 70.1875 C217.83084581 68.56782061 221.87343648 69.06740083 227.125 71.875 C230.15093529 73.6304642 231.25166016 74.56499024 233.25 77.5625 C233.625 80.5625 233.625 80.5625 233.25 83.5625 C231.16640793 85.8776023 229.80564772 86.46526165 226.75 87 C223.49689204 86.43070611 222.46554925 84.92575253 220.25 82.5625 C219.26 82.5625 218.27 82.5625 217.25 82.5625 C218.70744155 88.44832162 221.90129634 92.45565784 225.5 97.1875 C239.0552336 115.60025854 239.0552336 115.60025854 238.65625 127.96875 C238.09527253 131.55037538 237.2919889 133.67470676 234.5078125 136.046875 C228.17974325 139.80199302 222.54097588 140.7057892 215.25 139.5625 C213.17544582 138.63792889 211.32314232 137.54397701 209.37890625 136.375 C205.65787957 134.95486505 201.97557396 135.89811972 198.10546875 136.3984375 C194.03148715 136.63251031 191.75101317 135.55171203 188.25 133.5625 C188.12625 134.531875 188.0025 135.50125 187.875 136.5 C187.565625 138.0159375 187.565625 138.0159375 187.25 139.5625 C182.9969413 141.68902935 177.85843458 141.14592075 173.25 140.5625 C169.11446941 138.86938208 167.04509968 136.33312584 165.234375 132.30078125 C162.87561545 124.38043669 162.54192045 115.95621198 161.9831543 107.74829102 C161.60095082 102.37613325 160.83509293 97.69925343 159.25 92.5625 C159.25 91.2425 159.25 89.9225 159.25 88.5625 C158.59 88.5625 157.93 88.5625 157.25 88.5625 C154.59834582 100.44869405 154.85240961 112.4391247 154.71826172 124.55371094 C154.68467853 127.30942467 154.63960343 130.06478014 154.59375 132.8203125 C154.5884729 133.66917023 154.5831958 134.51802795 154.57775879 135.39260864 C154.47579036 141.33670964 154.47579036 141.33670964 152.25 143.5625 C149.3125 144 149.3125 144 146.25 143.5625 C143.37181272 139.82224696 142.66917995 136.37010118 142.0625 131.75 C141.82466797 130.00783203 141.82466797 130.00783203 141.58203125 128.23046875 C141.47246094 127.35003906 141.36289062 126.46960938 141.25 125.5625 C140.41597656 126.23796875 139.58195312 126.9134375 138.72265625 127.609375 C127.41164428 136.64535801 119.39308175 141.24884994 104.25 139.5625 C99.19241728 138.00951483 96.31897681 134.75676831 93.25 130.5625 C92.321875 129.758125 91.39375 128.95375 90.4375 128.125 C89.715625 127.279375 88.99375 126.43375 88.25 125.5625 C88.5234375 122.93359375 88.5234375 122.93359375 89.25 119.5625 C89.48394875 118.19894658 89.7114529 116.83427678 89.93359375 115.46875 C90.18452693 113.99993693 90.43583554 112.53118795 90.6875 111.0625 C90.80931641 110.32902344 90.93113281 109.59554687 91.05664062 108.83984375 C91.79012989 104.59092667 92.7638919 100.62838883 94.25 96.5625 C84.5865358 110.28093282 78.85265018 126.35054207 74.1015625 142.35546875 C72.67313908 146.05757533 71.17646488 148.1315861 67.5625 149.8125 C59.72896254 151.58613112 59.72896254 151.58613112 56.25 150.5625 C52.53990392 147.32518074 50.56110129 143.80690518 49.375 139.0625 C49.33375 138.2375 49.2925 137.4125 49.25 136.5625 C48.26 136.5625 47.27 136.5625 46.25 136.5625 C45.99734375 137.16707031 45.7446875 137.77164063 45.484375 138.39453125 C43.39870702 142.05765065 39.95806168 143.73593628 36.25 145.5625 C32.75 146.375 32.75 146.375 30.25 146.5625 C30.105625 147.366875 29.96125 148.17125 29.8125 149 C29.25 151.5625 29.25 151.5625 28.25 152.5625 C26.12075849 152.67564626 23.98767339 152.71724467 21.85546875 152.73046875 C21.20052429 152.73470352 20.54557983 152.73893829 19.87078857 152.74330139 C17.72629532 152.75326557 15.58201251 152.75320826 13.4375 152.75 C12.34563889 152.74909363 12.34563889 152.74909363 11.23171997 152.74816895 C-11.93110197 152.69575931 -31.81360486 149.66127887 -53.3684082 140.82397461 C-69.50275289 134.26092279 -87.46013562 130.13489573 -104.3828125 136.5625 C-108.91252626 138.72085891 -112.85109676 141.32524256 -116.875 144.3125 C-121.32219132 147.52708396 -124.25445528 148.65891307 -129.75 148.5625 C-130.74 147.9025 -131.73 147.2425 -132.75 146.5625 C-133.25593838 142.7318237 -133.29136327 140.44186469 -131.2421875 137.11328125 C-128.01259856 133.80776154 -124.5338329 132.11927581 -120.4375 130.0625 C-111.72281864 125.45556578 -104.75001585 119.86242466 -97.54248047 113.19726562 C-94.61783819 110.52995363 -91.58533138 107.99217537 -88.5625 105.4375 C-83.11268681 100.79007122 -77.80361972 96.0084044 -72.546875 91.14453125 C-69.96638673 88.76226485 -67.36495703 86.40680065 -64.75 84.0625 C-61.54304911 81.18552477 -58.35579969 78.28901843 -55.18505859 75.37231445 C-51.18075971 71.68948745 -47.17536537 68.00712112 -43.125 64.375 C-42.51398438 63.82457031 -41.90296875 63.27414063 -41.2734375 62.70703125 C-39.75 61.5625 -39.75 61.5625 -37.75 61.5625 C-37.75 60.9025 -37.75 60.2425 -37.75 59.5625 C-36.17713316 58.14811594 -34.53860004 56.80645599 -32.875 55.5 C-29.11646047 52.49795633 -25.47126006 49.45078924 -21.9375 46.1875 C-18.01532568 42.6082821 -13.94533117 39.30959066 -9.75 36.0625 C-3.83437853 31.48189363 1.74831922 26.63584923 7.25 21.5625 C8.74404301 20.20176386 10.24363854 18.84708668 11.75 17.5 C12.3790625 16.93152344 13.008125 16.36304687 13.65625 15.77734375 C15.25 14.5625 15.25 14.5625 17.25 14.5625 C17.25 13.9025 17.25 13.2425 17.25 12.5625 C6.34790725 12.49249336 -4.55413062 12.43943455 -15.45640373 12.40706348 C-20.52065945 12.39151443 -25.58475957 12.37047692 -30.64892578 12.33618164 C-35.55081806 12.30319915 -40.45256222 12.28556648 -45.35455704 12.27786827 C-47.20973156 12.27239361 -49.06489947 12.26170695 -50.92000961 12.24530983 C-61.8735279 12.15248578 -72.18797691 12.81376615 -82.94973755 14.91654968 C-91.42547535 16.35721479 -91.42547535 16.35721479 -94.625 14.4375 C-96.27854531 11.68159116 -96.14365568 9.71174548 -95.75 6.5625 C-93.62135206 3.80656535 -91.92229368 3.11995088 -88.5234375 2.6484375 C-87.66999756 2.52766846 -86.81655762 2.40689941 -85.93725586 2.2824707 C-85.00921143 2.16863037 -84.08116699 2.05479004 -83.125 1.9375 C-82.14861572 1.81270264 -81.17223145 1.68790527 -80.16625977 1.55932617 C-53.65914048 -1.61075785 -26.63432595 -0.82492526 0 0 Z M58.25 88.5625 C58.20875 89.84125 58.1675 91.12 58.125 92.4375 C58.10179687 93.15679687 58.07859375 93.87609375 58.0546875 94.6171875 C58.06668311 96.80113645 58.06668311 96.80113645 60.25 98.5625 C59.92 95.2625 59.59 91.9625 59.25 88.5625 C58.92 88.5625 58.59 88.5625 58.25 88.5625 Z M111.62890625 92.1015625 C106.63540448 97.81647848 106.63540448 97.81647848 103.25 104.5625 C103.44530151 106.86137008 103.44530151 106.86137008 104.25 108.5625 C109.52429914 103.74028365 114.55745839 97.94961053 115.25 90.5625 C113.11918574 90.3329934 113.11918574 90.3329934 111.62890625 92.1015625 Z M27.25 105.5625 C23.21111557 111.40943738 20.49463401 118.40986766 20.25 125.5625 C20.84885114 128.67652591 21.76133175 130.68783028 23.25 133.5625 C26.01418945 135.77687323 26.01418945 135.77687323 28.875 135.6875 C35.16701515 133.59016162 40.41233487 128.64027195 43.6875 122.875 C46.05596167 117.4026639 46.63561575 111.44410529 47.25 105.5625 C47.33507812 104.80839844 47.42015625 104.05429688 47.5078125 103.27734375 C47.69779094 100.29468228 47.55326365 98.9106916 45.5625 96.625 C37.48850952 92.9153287 32.29772713 100.02138601 27.25 105.5625 Z M172.25 97.5625 C172.22301811 99.18740954 172.20361243 100.81244633 172.1875 102.4375 C172.17589844 103.34242187 172.16429687 104.24734375 172.15234375 105.1796875 C172.08750743 107.5793585 172.08750743 107.5793585 173.25 109.5625 C173.42068546 110.91228844 173.54596004 112.26803793 173.64453125 113.625 C173.71349609 114.42164062 173.78246094 115.21828125 173.85351562 116.0390625 C173.99276205 117.72043055 174.12038458 119.40280198 174.23632812 121.0859375 C174.30916016 121.88257812 174.38199219 122.67921875 174.45703125 123.5 C174.5135083 124.23089844 174.56998535 124.96179688 174.62817383 125.71484375 C175.10215124 127.73230309 175.10215124 127.73230309 177.09643555 128.83984375 C180.05057597 129.83114356 182.25712468 129.24269894 185.25 128.5625 C185.05664062 127.91667969 184.86328125 127.27085938 184.6640625 126.60546875 C182.57788287 119.05597712 181.59350587 111.67684029 180.89697266 103.88745117 C180.61303304 99.58996784 180.61303304 99.58996784 179.25 95.5625 C176.6034665 95.5625 174.6691837 96.54389634 172.25 97.5625 Z M60.25 101.5625 C54.95028285 110.74867639 56.77836519 123.45038431 58.6171875 133.41796875 C59.11990665 135.75112197 59.11990665 135.75112197 61.25 137.5625 C61.25 125.6825 61.25 113.8025 61.25 101.5625 C60.92 101.5625 60.59 101.5625 60.25 101.5625 Z " fill="#FEFEFE" transform="translate(132.75,0.4375)"/>
</svg>
